<svg width="100" height="100" viewBox="0 0 100 100" fill="none" xmlns="http://www.w3.org/2000/svg">
<g clip-path="url(#clip0_481_10)">
<rect width="100" height="100" rx="50" fill="#1D1B20"/>
<path fill-rule="evenodd" clip-rule="evenodd" d="M50.042 -1C21.8171 -1 -1 22.3749 -1 51.2928C-1 74.4085 13.6197 93.9754 33.9011 100.901C36.4368 101.421 37.3656 99.7756 37.3656 98.3911C37.3656 97.1788 37.282 93.0234 37.282 88.6938C23.0834 91.8111 20.1266 82.4601 20.1266 82.4601C17.8448 76.3996 14.4639 74.842 14.4639 74.842C9.81667 71.6386 14.8024 71.6386 14.8024 71.6386C19.9574 71.9849 22.6623 77.0063 22.6623 77.0063C27.2249 84.9708 34.5771 82.7204 37.5348 81.3349C37.9569 77.9583 39.3099 75.6208 40.7465 74.3224C29.4221 73.1101 17.5073 68.6083 17.5073 48.5219C17.5073 42.8078 19.5342 38.1328 22.7459 34.4969C22.2392 33.1985 20.4641 27.8298 23.2537 20.6441C23.2537 20.6441 27.5634 19.2586 37.281 26.0118C41.4414 24.8672 45.732 24.2849 50.042 24.28C54.3517 24.28 58.7451 24.8866 62.802 26.0118C72.5206 19.2586 76.8303 20.6441 76.8303 20.6441C79.6199 27.8298 77.8437 33.1985 77.337 34.4969C80.6333 38.1328 82.5766 42.8078 82.5766 48.5219C82.5766 68.6083 70.6619 73.023 59.2528 74.3224C61.1125 75.9672 62.7173 79.0835 62.7173 84.0188C62.7173 91.0312 62.6337 96.6593 62.6337 98.3901C62.6337 99.7756 63.5636 101.421 66.0983 100.902C86.3797 93.9744 100.999 74.4085 100.999 51.2928C101.083 22.3749 78.1823 -1 50.042 -1Z" fill="#49454F"/>
</g>
<defs>
<clipPath id="clip0_481_10">
<rect width="100" height="100" rx="50" fill="white"/>
</clipPath>
</defs>
</svg>
