<svg width="100" height="100" viewBox="0 0 100 100" fill="none" xmlns="http://www.w3.org/2000/svg">
<rect width="100" height="100" rx="50" fill="#49454F"/>
<path fill-rule="evenodd" clip-rule="evenodd" d="M77 73H66.1102V54.4522C66.1102 49.3668 64.1779 46.525 60.1528 46.525C55.7741 46.525 53.4864 49.4824 53.4864 54.4522V73H42.9917V37.6667H53.4864V42.4261C53.4864 42.4261 56.6419 36.5872 64.1399 36.5872C71.6344 36.5872 77 41.1638 77 50.6291V73ZM30.4715 33.0401C26.8967 33.0401 24 30.1206 24 26.52C24 22.9194 26.8967 20 30.4715 20C34.0462 20 36.9412 22.9194 36.9412 26.52C36.9412 30.1206 34.0462 33.0401 30.4715 33.0401ZM25.0524 73H35.9957V37.6667H25.0524V73Z" fill="#1D1B20"/>
</svg>
