<svg width="100" height="100" viewBox="0 0 100 100" fill="none" xmlns="http://www.w3.org/2000/svg">
<rect width="100" height="100" rx="50" fill="#49454F"/>
<path fill-rule="evenodd" clip-rule="evenodd" d="M22.6327 49.4722C37.2088 43.1217 46.9284 38.935 51.7916 36.9122C65.6772 31.1367 68.5624 30.1335 70.443 30.1004C70.8567 30.0931 71.7815 30.1956 72.3805 30.6817C72.8864 31.0921 73.0256 31.6466 73.0922 32.0357C73.1588 32.4249 73.2417 33.3114 73.1758 34.0041C72.4233 41.9103 69.1674 61.0965 67.511 69.9515C66.8101 73.6984 65.43 74.9548 64.094 75.0777C61.1904 75.3449 58.9855 73.1588 56.1732 71.3153C51.7726 68.4307 49.2865 66.6349 45.0149 63.82C40.0783 60.5669 43.2785 58.7789 46.0918 55.8569C46.8281 55.0921 59.6214 43.4557 59.869 42.4C59.9 42.268 59.9287 41.7759 59.6364 41.516C59.344 41.2562 58.9125 41.3451 58.6011 41.4157C58.1598 41.5159 51.1297 46.1625 37.5109 55.3556C35.5154 56.7259 33.708 57.3935 32.0886 57.3585C30.3033 57.3199 26.8692 56.3491 24.3163 55.5192C21.185 54.5014 18.6964 53.9633 18.9131 52.2346C19.0259 51.3343 20.2658 50.4135 22.6327 49.4722Z" fill="#1D1B20"/>
</svg>
